<?xml version="1.0" encoding="utf-8"?>
<!DOCTYPE svg PUBLIC "-//W3C//DTD SVG 1.0//EN" "http://www.w3.org/TR/2001/REC-SVG-20010904/DTD/svg10.dtd">
<svg version="1.0" xmlns="http://www.w3.org/2000/svg" width="247px" height="165px" viewBox="0 0 247 165" preserveAspectRatio="xMidYMid meet">
 <g fill="#000001">
  <path d="M0 82.33 l0 -82.33 123.50 0 123.50 0 0 82.33 0 82.33 -123.50 0 -123.50 0 0 -82.33z m77.94 46.21 c0.02 -21.71 0.10 -33.39 0.24 -34.28 1.27 -8.21 7.30 -14.53 15.73 -16.43 2.18 -0.49 7.42 -0.44 9.64 0.10 5.01 1.23 8.73 3.66 11.52 7.54 1.54 2.16 2.51 4.12 3.50 7.13 2.20 6.65 4.41 10.39 8.69 14.69 4.87 4.87 10.93 8.04 18.23 9.52 1.94 0.40 2.83 0.46 6.41 0.44 3.82 0 4.33 -0.04 6.51 -0.55 6.95 -1.62 12.67 -4.73 17.18 -9.34 2.06 -2.12 2.61 -2.79 4.16 -5.13 2.87 -4.31 4.59 -9.04 5.32 -14.51 0.32 -2.49 0.12 -7.28 -0.42 -9.82 -2.20 -10.31 -8.79 -18.82 -18.11 -23.37 -6.33 -3.11 -13.08 -4.22 -19.69 -3.25 -1.54 0.24 -1.98 0.63 -1.98 1.86 0 2 1.21 7.28 2.10 9.10 0.89 1.86 0.65 1.76 4.18 1.70 3.50 -0.04 5.38 0.22 8.04 1.17 6.18 2.18 10.61 7.07 12.35 13.56 0.46 1.76 0.51 2.34 0.51 5.34 0.02 3.66 -0.18 4.85 -1.21 7.76 -0.87 2.45 -2.26 4.63 -4.29 6.69 -3.38 3.42 -7.18 5.28 -11.97 5.86 -7.78 0.89 -15.16 -1.90 -19.51 -7.40 -1.70 -2.16 -2.85 -4.43 -4.16 -8.29 -1.29 -3.80 -2.38 -6.12 -4.04 -8.67 -3.38 -5.15 -7.56 -8.89 -12.96 -11.58 -10.01 -4.99 -20.68 -4.99 -30.68 0 -3.33 1.66 -5.78 3.42 -8.51 6.14 -5.07 5.01 -7.96 10.61 -9.44 18.21 -0.42 2.14 -0.44 2.57 -0.49 28.54 l-0.08 26.36 1.03 1.15 c0.97 1.07 12.09 12.73 12.15 12.73 0.02 0 0.04 -14.82 0.06 -32.95z m25.19 2.47 c1.50 -0.22 3.23 -0.57 3.86 -0.77 7.82 -2.51 13.68 -6.55 18.37 -12.67 l0.97 -1.25 -1.46 -1.31 c-2.04 -1.80 -5.09 -5.03 -6.49 -6.83 l-1.17 -1.52 -0.83 1.44 c-1.05 1.76 -2.39 3.48 -3.80 4.81 -0.97 0.93 -4.53 3.44 -4.87 3.44 -0.08 0 -0.38 0.16 -0.63 0.36 -0.28 0.18 -1.42 0.59 -2.57 0.89 -1.74 0.47 -2.65 0.57 -5.56 0.69 -2.97 0.12 -3.56 0.20 -3.90 0.49 -0.61 0.55 -1.52 2.59 -2.22 4.89 -0.63 2.18 -1.62 7.14 -1.46 7.32 0.18 0.18 2.81 0.34 6.02 0.36 2.18 0.02 3.84 -0.08 5.76 -0.36z m27.81 -76.55 c-0.02 -16.66 0.02 -20.03 0.26 -20.29 0.22 -0.30 0.73 -0.34 3.50 -0.34 2.97 0 3.66 -0.12 3.05 -0.49 -0.20 -0.12 -11.66 -15.38 -12.98 -17.26 -0.32 -0.47 -0.63 -0.83 -0.71 -0.79 -0.08 0.02 -3.21 4.14 -6.99 9.14 l-6.83 9.10 3.40 0.10 3.42 0.10 0.10 14.78 c0.06 8.11 0.14 14.80 0.20 14.86 0.06 0.06 0.63 0.36 1.29 0.69 1.78 0.89 4.53 2.75 6.53 4.41 1.80 1.52 5.64 5.40 5.64 5.74 0 0.10 0.04 0.18 0.08 0.18 0.04 0 0.06 -8.99 0.04 -19.95z"/>
 </g>
 <g fill="#fefdfd">
  <path d="M72.20 156.81 c-3.33 -3.46 -6.49 -6.81 -7.07 -7.44 l-1.03 -1.15 0.08 -26.96 c0.06 -26.58 0.08 -27 0.49 -29.13 1.48 -7.60 4.37 -13.20 9.44 -18.21 2.73 -2.71 5.19 -4.47 8.51 -6.14 7.22 -3.60 15.22 -4.65 23.10 -3.07 7.46 1.52 14.49 5.60 19.14 11.14 3.03 3.62 4.87 7.01 6.63 12.17 0.59 1.76 1.48 3.98 1.98 4.93 2.63 5.09 7.14 8.69 12.71 10.15 5.90 1.54 11.78 0.61 16.80 -2.67 1.76 -1.15 4.59 -4.10 5.72 -6 1.92 -3.23 2.75 -6.41 2.75 -10.43 0 -2.36 -0.08 -3.07 -0.53 -4.75 -1.78 -6.75 -6.55 -11.78 -13.08 -13.81 -2.55 -0.79 -4.35 -1.01 -7.44 -0.87 -2.65 0.12 -2.75 0.12 -3.15 -0.30 -1.76 -1.90 -3.74 -11.32 -2.71 -12.88 0.38 -0.59 0.69 -0.65 4.35 -0.95 3.44 -0.28 6.83 -0.06 10.33 0.69 3.01 0.65 4.91 1.33 7.92 2.79 9.32 4.55 15.89 13.02 18.11 23.37 0.55 2.51 0.75 8.37 0.42 11.02 -0.73 5.44 -2.45 10.19 -5.32 14.49 -1.54 2.34 -2.10 3.01 -4.16 5.13 -4.51 4.61 -10.21 7.72 -17.18 9.34 -2.22 0.53 -2.61 0.55 -7.11 0.57 -4.20 0 -5.01 -0.06 -7.01 -0.46 -7.30 -1.48 -13.36 -4.65 -18.23 -9.52 -4.28 -4.29 -6.49 -8.04 -8.69 -14.69 -0.99 -3.01 -1.96 -4.97 -3.50 -7.13 -2.79 -3.88 -6.53 -6.33 -11.52 -7.54 -2.18 -0.51 -6.33 -0.57 -8.45 -0.10 -8.41 1.88 -14.47 8.21 -15.73 16.41 -0.14 0.89 -0.22 12.79 -0.22 34.79 -0.02 18.39 -0.10 33.45 -0.18 33.45 -0.08 0 -2.87 -2.83 -6.18 -6.27z"/>
 </g>
 <g fill="#fb670f">
  <path d="M92.19 131.83 c-0.85 -0.08 -1.56 -0.18 -1.60 -0.22 -0.06 -0.06 0.12 -1.35 0.38 -2.87 0.81 -4.83 2.38 -9.52 3.48 -10.53 0.34 -0.30 0.93 -0.38 3.90 -0.49 2.91 -0.12 3.82 -0.22 5.56 -0.69 1.15 -0.30 2.30 -0.71 2.57 -0.89 0.26 -0.20 0.55 -0.36 0.63 -0.36 0.08 0 1.05 -0.61 2.18 -1.37 2.89 -1.94 4.69 -3.88 6.61 -7.13 0.55 -0.93 1.13 -1.72 1.29 -1.74 0.16 -0.02 0.77 0.63 1.37 1.46 1.84 2.55 5.50 6.33 8.19 8.47 l0.75 0.61 -1.17 1.58 c-3.52 4.73 -8.04 8.53 -12.94 10.85 -5.64 2.67 -9.48 3.50 -16.01 3.44 -2.02 0 -4.35 -0.08 -5.19 -0.14z"/>
  <path d="M130.41 75.07 c-2.63 -3.58 -8.29 -8.35 -12.35 -10.39 -0.65 -0.34 -1.23 -0.63 -1.29 -0.69 -0.06 -0.06 -0.14 -6.75 -0.20 -14.86 l-0.10 -14.78 -3.80 -0.06 c-2.10 -0.02 -3.82 -0.10 -3.82 -0.16 0 -0.26 14.92 -19.97 15.16 -20.03 0.14 -0.04 0.77 0.63 1.39 1.48 3.23 4.37 11.20 15.02 12.41 16.55 0.83 1.05 1.33 1.84 1.25 2.02 -0.08 0.24 -0.69 0.30 -3.54 0.30 -2.97 0 -3.48 0.04 -3.72 0.34 -0.24 0.26 -0.28 3.70 -0.24 20.88 0.04 12.69 -0.02 20.54 -0.14 20.54 -0.10 0 -0.55 -0.51 -1.01 -1.13z"/>
 </g>
</svg>